<svg width="255" height="99" viewBox="0 0 255 99" fill="none" xmlns="http://www.w3.org/2000/svg">
<g clip-path="url(#clip0_1_457)">
<path d="M1.70104 97.4324C0.644977 96.6523 0.0779643 95.5317 0 94.0779H4.18526C4.22425 94.5708 4.37309 94.9325 4.6247 95.1594C4.87631 95.3864 5.20589 95.4998 5.60634 95.4998C5.96781 95.4998 6.26195 95.4112 6.49584 95.2303C6.72974 95.0495 6.84668 94.8013 6.84668 94.4786C6.84668 94.0637 6.65177 93.7446 6.26549 93.5176C5.87922 93.2907 5.25196 93.0354 4.38372 92.7552C3.46232 92.4467 2.71812 92.1524 2.15111 91.8652C1.58409 91.578 1.0915 91.156 0.669784 90.6028C0.248068 90.0497 0.0389821 89.3263 0.0389821 88.4291C0.0389821 87.532 0.265787 86.7448 0.719398 86.0959C1.17301 85.447 1.80027 84.9576 2.60117 84.6243C3.40208 84.291 4.3093 84.1243 5.32283 84.1243C6.96363 84.1243 8.27485 84.5073 9.25649 85.2768C10.2381 86.0462 10.7626 87.1242 10.8264 88.5107H6.56318C6.549 88.0852 6.41788 87.7625 6.17335 87.5497C5.92529 87.337 5.60988 87.2306 5.22361 87.2306C4.92947 87.2306 4.68849 87.3193 4.50421 87.4895C4.31639 87.6632 4.22425 87.9114 4.22425 88.2306C4.22425 88.4965 4.32702 88.727 4.5361 88.922C4.74165 89.1171 5.00035 89.2837 5.30512 89.422C5.61343 89.5639 6.06704 89.7376 6.66595 89.9539C7.55899 90.2624 8.29611 90.5638 8.8773 90.8652C9.45848 91.1666 9.95817 91.5851 10.3799 92.1276C10.8016 92.6701 11.0107 93.3545 11.0107 94.1807C11.0107 95.0069 10.8016 95.7764 10.3799 96.4431C9.95817 97.1097 9.35217 97.6381 8.55835 98.0246C7.76453 98.4111 6.82542 98.6061 5.74455 98.6061C4.10376 98.6061 2.75356 98.2161 1.70104 97.4359V97.4324Z" fill="#DB2710"/>
<path d="M23.7614 87.4859V89.7908H28.2656V92.7765H23.7614V95.319H28.8645V98.4643H19.8384V84.3442H28.8645V87.4895H23.7614V87.4859Z" fill="#DB2710"/>
<path d="M44.9572 98.4643L42.1541 93.2552H41.7323V98.4643H37.8093V84.3442H43.9933C45.1273 84.3442 46.0877 84.5428 46.8744 84.9364C47.6612 85.33 48.2565 85.8725 48.657 86.5569C49.0574 87.2448 49.2559 88.0178 49.2559 88.8689C49.2559 89.8298 48.9937 90.6738 48.4656 91.4042C47.9376 92.1312 47.1686 92.6489 46.155 92.9574L49.3374 98.4643H44.9537H44.9572ZM41.7359 90.5709H43.6779C44.213 90.5709 44.6135 90.4433 44.8793 90.1915C45.1451 89.9362 45.2797 89.571 45.2797 89.0887C45.2797 88.6348 45.1415 88.2767 44.8686 88.0178C44.5958 87.7554 44.1989 87.6278 43.6779 87.6278H41.7359V90.5709Z" fill="#DB2710"/>
<path d="M71.7803 84.3442L66.9147 98.4643H61.8895L57.0061 84.3442H61.2091L64.4127 94.5389L67.5951 84.3442H71.7803Z" fill="#DB2710"/>
<path d="M83.9321 84.3442V98.4643H80.009V84.3442H83.9321Z" fill="#DB2710"/>
<path d="M93.5713 87.6597C94.1524 86.5711 94.9746 85.7236 96.0448 85.1172C97.1115 84.5108 98.3412 84.2059 99.7269 84.2059C101.488 84.2059 102.969 84.6775 104.171 85.6172C105.372 86.5569 106.145 87.837 106.492 89.4539H102.268C102.013 88.9185 101.665 88.5143 101.215 88.2306C100.769 87.9504 100.251 87.8086 99.6631 87.8086C98.7559 87.8086 98.0329 88.1313 97.4907 88.7802C96.9485 89.4291 96.6792 90.2908 96.6792 91.3723C96.6792 92.4538 96.9485 93.3403 97.4907 93.9857C98.0329 94.6311 98.7559 94.9573 99.6631 94.9573C100.251 94.9573 100.769 94.8155 101.215 94.5353C101.662 94.2552 102.013 93.8474 102.268 93.312H106.492C106.145 94.9289 105.372 96.2055 104.171 97.1487C102.969 98.0884 101.488 98.56 99.7269 98.56C98.3377 98.56 97.1115 98.2551 96.0448 97.6487C94.9781 97.0423 94.1524 96.1948 93.5713 95.1062C92.9901 94.0176 92.6995 92.773 92.6995 91.3723C92.6995 89.9717 92.9901 88.7447 93.5713 87.6561V87.6597Z" fill="#DB2710"/>
<path d="M119.282 87.4859V89.7908H123.786V92.7765H119.282V95.319H124.385V98.4643H115.359V84.3442H124.385V87.4895H119.282V87.4859Z" fill="#DB2710"/>
<path d="M144.553 87.6597C145.134 86.5711 145.956 85.7236 147.026 85.1172C148.093 84.5108 149.323 84.2059 150.708 84.2059C152.47 84.2059 153.951 84.6775 155.152 85.6172C156.354 86.5569 157.126 87.837 157.473 89.4539H153.249C152.994 88.9185 152.647 88.5143 152.197 88.2306C151.75 87.9504 151.233 87.8086 150.645 87.8086C149.737 87.8086 149.014 88.1313 148.472 88.7802C147.93 89.4291 147.661 90.2908 147.661 91.3723C147.661 92.4538 147.93 93.3403 148.472 93.9857C149.014 94.6346 149.737 94.9573 150.645 94.9573C151.233 94.9573 151.75 94.8155 152.197 94.5353C152.643 94.2552 152.994 93.8474 153.249 93.312H157.473C157.126 94.9289 156.354 96.2055 155.152 97.1487C153.951 98.0884 152.47 98.56 150.708 98.56C149.319 98.56 148.093 98.2551 147.026 97.6487C145.96 97.0423 145.134 96.1948 144.553 95.1062C143.971 94.0176 143.681 92.773 143.681 91.3723C143.681 89.9717 143.971 88.7447 144.553 87.6561V87.6597Z" fill="#DB2710"/>
<path d="M170.267 87.4859V89.7908H174.771V92.7765H170.267V95.319H175.37V98.4643H166.344V84.3442H175.37V87.4895H170.267V87.4859Z" fill="#DB2710"/>
<path d="M197.388 98.4643H193.465L188.241 90.5745V98.4643H184.318V84.3442H188.241L193.465 92.3368V84.3442H197.388V98.4643Z" fill="#DB2710"/>
<path d="M217.265 84.3442V87.4682H213.502V98.4643H209.579V87.4682H205.854V84.3442H217.265Z" fill="#DB2710"/>
<path d="M232.879 98.4643L230.076 93.2552H229.654V98.4643H225.731V84.3442H231.915C233.049 84.3442 234.01 84.5428 234.797 84.9364C235.583 85.33 236.179 85.8725 236.579 86.5569C236.98 87.2448 237.178 88.0178 237.178 88.8689C237.178 89.8298 236.916 90.6738 236.388 91.4042C235.86 92.1312 235.091 92.6489 234.077 92.9574L237.26 98.4643H232.876H232.879ZM229.658 90.5709H231.6C232.135 90.5709 232.536 90.4433 232.801 90.1915C233.067 89.9362 233.202 89.571 233.202 89.0887C233.202 88.6348 233.064 88.2767 232.791 88.0178C232.518 87.7554 232.121 87.6278 231.6 87.6278H229.658V90.5709Z" fill="#DB2710"/>
<path d="M249.893 87.4859V89.7908H254.397V92.7765H249.893V95.319H254.996V98.4643H245.97V84.3442H254.996V87.4895H249.893V87.4859Z" fill="#DB2710"/>
<path d="M0.180176 71.8828V0H22.3473V71.8828H0.180176ZM14.2385 55.3493L7.36409 38.7139L56.8286 0H83.8202L14.2385 55.3493ZM58.6747 71.8828L28.6064 35.7373L41.6415 21.5648L84.745 71.8828H58.6783H58.6747Z" fill="#1F317C"/>
<path d="M90.7966 71.8828V0H133.077C139.646 0 145.188 0.717735 149.703 2.15685C154.218 3.59596 157.64 5.61436 159.967 8.21569C162.294 10.817 163.455 13.8628 163.455 17.3531C163.455 21.5284 162.29 25.0369 159.967 27.8787C157.64 30.7205 154.083 32.6879 149.295 33.7845L149.706 31.9374C152.717 32.6223 155.557 33.7007 158.223 35.1726C160.892 36.6445 163.062 38.5609 164.74 40.9218C166.415 43.2827 167.256 46.2119 167.256 49.7022C167.256 54.2199 166.262 57.9179 164.282 60.7925C162.297 63.6671 159.716 65.9113 156.533 67.5181C153.351 69.1284 149.928 70.2578 146.269 70.9063C142.61 71.5585 139.1 71.8828 135.75 71.8828H90.8003H90.7966ZM111.322 27.5217H131.948C134.002 27.5217 135.761 27.3358 137.235 26.9569C138.706 26.5817 139.835 26.017 140.622 25.2628C141.408 24.5086 141.801 23.5176 141.801 22.2862C141.801 20.5083 140.844 19.255 138.929 18.5372C137.013 17.8195 134.617 17.4588 131.745 17.4588H111.322V27.5217ZM111.322 54.424H136.158C137.934 54.424 139.544 54.2199 140.982 53.8082C142.42 53.3965 143.564 52.748 144.419 51.8554C145.275 50.9664 145.701 49.8006 145.701 48.3651C145.701 46.6564 145.118 45.3885 143.957 44.5651C142.792 43.7454 141.426 43.1807 139.853 42.871C138.277 42.5613 136.879 42.4083 135.644 42.4083H111.322V54.424Z" fill="#1F317C"/>
<path d="M163.866 71.8828L199.99 0H219.08L255 71.8828H232.629L213.437 34.2982C212.617 32.6551 211.878 31.1322 211.23 29.7295C210.578 28.3268 210.014 26.9752 209.537 25.6745C209.056 24.3738 208.612 23.1242 208.204 21.9255C207.793 20.7269 207.418 19.5464 207.076 18.3842H211.489C211.146 19.6156 210.753 20.8653 210.309 22.1332C209.865 23.4011 209.366 24.6835 208.82 25.9842C208.27 27.2848 207.673 28.6219 207.025 29.9882C206.373 31.3581 205.674 32.7972 204.92 34.3019L185.833 71.8864H163.87L163.866 71.8828ZM181.209 62.2279L187.982 47.1337H231.289L234.162 62.2279H181.205H181.209Z" fill="#1F317C"/>
</g>
<defs>
<clipPath id="clip0_1_457">
<rect width="255" height="99" fill="white"/>
</clipPath>
</defs>
</svg>
